<svg fill="#193961" id="Layer_1" data-name="Layer 1" xmlns="http://www.w3.org/2000/svg" viewBox="0 0 103.12 122.88">
    <title>note-book</title>
    <path d="M36.09,34.45a3.15,3.15,0,0,1,0-6.28H76.37a3.15,3.15,0,0,1,0,6.28ZM16.43,90a5.79,5.79,0,1,1-4.86,8.94H8.82v13.36a1.91,1.91,0,0,0,1.9,1.9H91.1a1.91,1.91,0,0,0,1.34-.56,1.87,1.87,0,0,0,.56-1.34V7.12a1.9,1.9,0,0,0-.55-1.34,1.93,1.93,0,0,0-1.35-.56H10.72a1.89,1.89,0,0,0-1.9,1.9V20.48h2.75a5.8,5.8,0,1,1,0,6.29H8.82V44.53h2.75a5.8,5.8,0,1,1,0,6.29H8.82V68.58h2.75a5.79,5.79,0,1,1,0,6.29H8.82V92.63h2.75A5.79,5.79,0,0,1,16.43,90ZM3.14,98.92a3.15,3.15,0,0,1,0-6.29H3.6V74.87H3.14a3.15,3.15,0,0,1,0-6.29H3.6V50.82H3.14a3.15,3.15,0,0,1,0-6.29H3.6V26.77H3.14a3.15,3.15,0,0,1,0-6.29H3.6V7.12a7.09,7.09,0,0,1,2.09-5h0a7.07,7.07,0,0,1,5-2.09H91.1a7.07,7.07,0,0,1,5,2.09h0A7.1,7.1,0,0,1,98,5.44h.6a4.55,4.55,0,0,1,4.5,4.51V118.37a4.53,4.53,0,0,1-4.5,4.51H16.76a4.51,4.51,0,0,1-4.39-3.48H10.72a7.14,7.14,0,0,1-7.12-7.12V98.92Zm33-7.69a3.15,3.15,0,0,1,0-6.29H76.37a3.15,3.15,0,0,1,0,6.29Zm0-18.92a3.15,3.15,0,0,1,0-6.29H76.37a3.15,3.15,0,0,1,0,6.29Zm0-18.93a3.15,3.15,0,0,1,0-6.29H76.37a3.15,3.15,0,0,1,0,6.29Z"/>
</svg>